<?xml version="1.0" encoding="utf-8"?>
<!-- Generator: Adobe Illustrator 23.1.1, SVG Export Plug-In . SVG Version: 6.00 Build 0)  -->
<svg version="1.1" id="Layer_1" xmlns="http://www.w3.org/2000/svg" xmlns:xlink="http://www.w3.org/1999/xlink" x="0px" y="0px"
	 viewBox="0 0 128 128" style="enable-background:new 0 0 128 128;" xml:space="preserve">
<style type="text/css">
	.st0{fill:#FFFFFF;}
	.st1{fill:#205AAF;}
</style>
<g>
	<path class="st0" d="M115.3,123.6c-35.4,0-70.9,0-106.3,0C9,84.1,9,44.6,9,5c35.4,0,70.9,0,106.3,0
		C115.3,44.5,115.3,84,115.3,123.6z M72.5,40.4c-2.8-0.2-5.4-0.4-8.1-0.7c-3.2-0.4-6.2-1.3-8.7-3.4c-2.7-2.2-3.3-5.5-1.4-8.5
		c1.3-2.1,3.2-3.6,5.5-4.4c3.5-1.3,7.2-1.4,10.9-0.7c7.9,1.5,14.2,5.4,17.9,12.8c2.8,5.6,2.5,11.5,0.7,17.4
		c-3,10.1-9.4,15.4-19.9,16.3C62,69.9,55,68.5,48.1,66c-9-3.3-16.8-8.7-24-14.8c-1.3-1.1-2.7-2.2-4-3.4c-0.8,1-1.6,2-2.3,2.9
		c0.5,0.6,0.9,1.1,1.4,1.7C23.3,57,27,62,31.5,66.2c12.7,12.1,27.8,16.7,45.1,13.2c6.9-1.4,13.1-4.4,17.9-9.7
		c5.7-6.2,8.3-13.7,9.3-22c2.2-17.5-10.1-31.6-21.6-35.9c-7-2.7-14.3-3.3-21.7-2.6C53.5,10,47.2,12.5,42,17.5
		c-4.7,4.4-7.1,9.7-5.7,16.2c1,4.7,3.8,8.3,7.6,11.1c6,4.6,13.1,5.8,20.4,6c0.4,0,1-0.4,1.3-0.7C67.8,47,70.1,43.7,72.5,40.4z
		 M111.4,79.7c-0.9,0.6-1.6,1-2.2,1.5c-2.1,1.8-4.1,3.7-6.2,5.4c-5.1,4.2-10.1,8.6-15.4,12.5c-5.4,4-11.5,6.2-18.3,5.9
		c-4.4-0.2-8.9-0.7-13.3-1.4c-13.7-2.1-25.2-8.5-34.7-18.4c-2-2.1-3.9-4.3-5.9-6.5c-0.9,0.7-1.8,1.4-2.7,2.1
		c0.2,0.3,0.3,0.4,0.4,0.6C19.1,90,25.9,98,34,104.8c6.5,5.5,13.5,10.1,21.6,12.6c8.3,2.6,16.6,2.9,24.6-1.1c5.9-3,11.1-7,15.8-11.8
		c5.7-5.8,10.3-12.4,14.6-19.4C111.5,83.5,111.5,81.8,111.4,79.7z"/>
	<path class="st1" d="M72.5,40.4c-2.3,3.3-4.6,6.6-7,9.8c-0.3,0.4-0.8,0.7-1.3,0.7c-7.3-0.2-14.4-1.4-20.4-6
		c-3.8-2.9-6.6-6.4-7.6-11.1C35,27.2,37.3,21.9,42,17.5c5.2-4.9,11.5-7.5,18.6-8.2c7.4-0.7,14.6-0.1,21.7,2.6
		c11.5,4.4,23.8,18.4,21.6,35.9c-1,8.2-3.6,15.8-9.3,22c-4.9,5.3-11,8.3-17.9,9.7c-17.3,3.5-32.4-1.1-45.1-13.2
		C27,62,23.3,57,19.2,52.4c-0.5-0.5-0.9-1.1-1.4-1.7c0.8-0.9,1.5-1.9,2.3-2.9c1.4,1.1,2.7,2.2,4,3.4c7.2,6.2,15,11.5,24,14.8
		c6.8,2.5,13.9,3.9,21.2,3.3c10.5-1,16.9-6.2,19.9-16.3c1.7-5.9,2.1-11.7-0.7-17.4c-3.7-7.4-9.9-11.3-17.9-12.8
		c-3.7-0.7-7.3-0.6-10.9,0.7c-2.3,0.9-4.2,2.3-5.5,4.4c-1.8,2.9-1.3,6.3,1.4,8.5c2.5,2,5.5,3,8.7,3.4C67,40,69.7,40.1,72.5,40.4z"/>
	<path class="st1" d="M111.4,79.7c0.1,2.1,0.1,3.9-0.9,5.6c-4.2,6.9-8.8,13.6-14.6,19.4c-4.7,4.7-9.8,8.8-15.8,11.8
		c-8,4-16.2,3.7-24.6,1.1c-8.2-2.6-15.2-7.2-21.6-12.6C25.9,98,19.1,90,13,81.4c-0.1-0.2-0.2-0.3-0.4-0.6c0.9-0.7,1.8-1.3,2.7-2.1
		c2,2.2,3.9,4.4,5.9,6.5c9.5,10,21,16.3,34.7,18.4c4.4,0.7,8.9,1.2,13.3,1.4c6.8,0.3,13-1.9,18.3-5.9c5.3-3.9,10.3-8.3,15.4-12.5
		c2.1-1.8,4.1-3.6,6.2-5.4C109.9,80.7,110.6,80.3,111.4,79.7z"/>
</g>
</svg>
